{"accessors" : [{"bufferView" : 0, "byteOffset" : 0, "componentType" : 5123, "count" : 1116, "type" : "SCALAR", "max" : [882], "min" : [0]}, {"bufferView" : 1, "byteOffset" : 0, "componentType" : 5126, "count" : 883, "type" : "VEC3", "max" : [31.93480110168457, 0.3207513093948364, 36.72290802001953], "min" : [-31.93480110168457, -0.3207519054412842, -18.85930633544922], "name" : "POSITION"}, {"bufferView" : 1, "byteOffset" : 12, "componentType" : 5126, "count" : 883, "type" : "VEC3", "max" : [0.7278841137886047, 0.6857149004936218, 0.7278841137886047], "min" : [-0.7278841137886047, -0.6857149004936218, -0.7278841137886047], "name" : "NORMAL"}, {"bufferView" : 1, "byteOffset" : 24, "componentType" : 5126, "count" : 883, "type" : "VEC2", "max" : [0, 1], "min" : [0, 1], "name" : "TEXCOORD_0"}, {"bufferView" : 0, "byteOffset" : 2232, "componentType" : 5123, "count" : 6384, "type" : "SCALAR", "max" : [5154], "min" : [0]}, {"bufferView" : 2, "byteOffset" : 0, "componentType" : 5126, "count" : 5155, "type" : "VEC3", "max" : [1, 3.433292865753174, 1], "min" : [-1, 0, -1], "name" : "POSITION"}, {"bufferView" : 2, "byteOffset" : 12, "componentType" : 5126, "count" : 5155, "type" : "VEC3", "max" : [1.0000044107437134, 0.9935702085494995, 1.0000044107437134], "min" : [-1.0000044107437134, -1.0000044107437134, -1.0000044107437134], "name" : "NORMAL"}, {"bufferView" : 2, "byteOffset" : 24, "componentType" : 5126, "count" : 5155, "type" : "VEC2", "max" : [0, 1], "min" : [0, 1], "name" : "TEXCOORD_0"}, {"bufferView" : 0, "byteOffset" : 15000, "componentType" : 5123, "count" : 6144, "type" : "SCALAR", "max" : [4741], "min" : [0]}, {"bufferView" : 3, "byteOffset" : 0, "componentType" : 5126, "count" : 4742, "type" : "VEC3", "max" : [1.006326675415039, 0.06186313182115555, 1.006326675415039], "min" : [-1.0063265562057495, 0, -1.006326675415039], "name" : "POSITION"}, {"bufferView" : 3, "byteOffset" : 12, "componentType" : 5126, "count" : 4742, "type" : "VEC3", "max" : [0.9903131723403931, 0.9919933676719666, 0.990317165851593], "min" : [-0.990317165851593, -0.9919933676719666, -0.990317165851593], "name" : "NORMAL"}, {"bufferView" : 3, "byteOffset" : 24, "componentType" : 5126, "count" : 4742, "type" : "VEC2", "max" : [0, 1], "min" : [0, 1], "name" : "TEXCOORD_0"}, {"bufferView" : 0, "byteOffset" : 27288, "componentType" : 5123, "count" : 3060, "type" : "SCALAR", "max" : [2394], "min" : [0]}, {"bufferView" : 4, "byteOffset" : 0, "componentType" : 5126, "count" : 2395, "type" : "VEC3", "max" : [0.9947298765182495, 0.06186313182115555, 0.9947298765182495], "min" : [-0.9947298765182495, 0, -0.9947298765182495], "name" : "POSITION"}, {"bufferView" : 4, "byteOffset" : 12, "componentType" : 5126, "count" : 2395, "type" : "VEC3", "max" : [0.9903069138526917, 0.9909384250640869, 0.9903069138526917], "min" : [-0.9903069138526917, -0.9909384250640869, -0.9903069138526917], "name" : "NORMAL"}, {"bufferView" : 4, "byteOffset" : 24, "componentType" : 5126, "count" : 2395, "type" : "VEC2", "max" : [0, 1], "min" : [0, 1], "name" : "TEXCOORD_0"}], "asset" : {"generator" : "Aspose.3D 22.6", "version" : "2.0"}, "buffers" : [{"uri" : "data:application/octet-stream;base64,", "byteLength" : 567956}], "bufferViews" : [{"buffer" : 0, "byteOffset" : 0, "byteLength" : 33408, "target" : 34963}, {"buffer" : 0, "byteOffset" : 33412, "byteLength" : 35712, "byteStride" : 32, "target" : 34962}, {"buffer" : 0, "byteOffset" : 69128, "byteLength" : 204288, "byteStride" : 32, "target" : 34962}, {"buffer" : 0, "byteOffset" : 273420, "byteLength" : 196608, "byteStride" : 32, "target" : 34962}, {"buffer" : 0, "byteOffset" : 470032, "byteLength" : 97920, "byteStride" : 32, "target" : 34962}], "materials" : [{"name" : "Table black", "pbrMetallicRoughness" : {"baseColorFactor" : [0.15163809061050415, 0.15163809061050415, 0.15163809061050415, 1], "metallicFactor" : 1, "roughnessFactor" : 0.39454546570777893}, "emissiveFactor" : [0, 0, 0], "alphaMode" : "OPAQUE", "doubleSided" : true}, {"name" : "Table black", "pbrMetallicRoughness" : {"baseColorFactor" : [0.15163809061050415, 0.15163809061050415, 0.15163809061050415, 1], "metallicFactor" : 1, "roughnessFactor" : 0.39454546570777893}, "emissiveFactor" : [0, 0, 0], "alphaMode" : "OPAQUE", "doubleSided" : true}, {"name" : "Table black", "pbrMetallicRoughness" : {"baseColorFactor" : [0.15163809061050415, 0.15163809061050415, 0.15163809061050415, 1], "metallicFactor" : 1, "roughnessFactor" : 0.39454546570777893}, "emissiveFactor" : [0, 0, 0], "alphaMode" : "OPAQUE", "doubleSided" : true}, {"name" : "Table top", "pbrMetallicRoughness" : {"baseColorFactor" : [0.0409204438328743, 0.0409204438328743, 0.0409204438328743, 1], "metallicFactor" : 0, "roughnessFactor" : 0.6745454668998718}, "emissiveFactor" : [0, 0, 0], "alphaMode" : "OPAQUE", "doubleSided" : true}], "meshes" : [{"primitives" : [{"attributes" : {"POSITION" : 1, "NORMAL" : 2, "TEXCOORD_0" : 3}, "indices" : 0, "material" : 0, "mode" : 4}]}, {"primitives" : [{"attributes" : {"POSITION" : 5, "NORMAL" : 6, "TEXCOORD_0" : 7}, "indices" : 4, "material" : 1, "mode" : 4}]}, {"primitives" : [{"attributes" : {"POSITION" : 9, "NORMAL" : 10, "TEXCOORD_0" : 11}, "indices" : 8, "material" : 2, "mode" : 4}]}, {"primitives" : [{"attributes" : {"POSITION" : 13, "NORMAL" : 14, "TEXCOORD_0" : 15}, "indices" : 12, "material" : 3, "mode" : 4}]}], "nodes" : [{"matrix" : [0.03705595502924317, 0, -0.06418278420489232, 0, 0, 0.07411190122365952, 0, 0, 0.06418278420489232, 0, 0.03705595502924317, 0, 0, -3.713987112045288, 0, 1], "mesh" : 0, "name" : "Table legs.001"}, {"matrix" : [2.7536351680755615, 0, 0, 0, 0, 2.7536351680755615, 0, 0, 0, 0, 2.7536351680755615, 0, 0, -3.690215587615967, 0, 1], "mesh" : 1, "name" : "Table main"}, {"matrix" : [4.498182773590088, 0, 0, 0, 0, 5.507268905639648, 0, 0, 0, 0, 4.498182773590088, 0, 0, 5.76616096496582, 0, 1], "mesh" : 2, "name" : "Table top ring"}, {"matrix" : [4.498182773590088, 0, 0, 0, 0, 5.507268905639648, 0, 0, 0, 0, 4.498182773590088, 0, 0, 5.76616096496582, 0, 1], "mesh" : 3, "name" : "Table top.001"}, {"children" : [0, 1, 2, 3], "matrix" : [0.05934806540608406, 0, 0, 0, 0, 0.05934806540608406, 0, 0, 0, 0, 0.05934806540608406, 0, 0, 0.2224138379096985, 0, 1], "name" : "Table"}], "scene" : 0, "scenes" : [{"nodes" : [4]}]}